<?xml version="1.0" standalone="no"?>
<!DOCTYPE svg PUBLIC "-//W3C//DTD SVG 20010904//EN"
 "http://www.w3.org/TR/2001/REC-SVG-20010904/DTD/svg10.dtd">
<svg version="1.0" xmlns="http://www.w3.org/2000/svg"
 width="16.000000pt" height="16.000000pt" viewBox="0 0 16.000000 16.000000"
 preserveAspectRatio="xMidYMid meet">
<metadata>
Created by potrace 1.16, written by Peter Selinger 2001-2019
</metadata>
<g transform="translate(0.000000,16.000000) scale(0.024242,-0.024242)"
fill="#000000" stroke="none">
<path d="M214 630 c-63 -25 -133 -91 -165 -156 -35 -71 -38 -179 -8 -259 64
-170 260 -247 424 -166 120 59 180 164 173 301 -7 122 -71 220 -178 272 -64
32 -177 35 -246 8z m231 -33 c13 -7 16 -12 7 -15 -7 -2 -19 -17 -28 -33 -12
-24 -18 -28 -33 -20 -14 8 -24 4 -47 -21 -19 -20 -25 -32 -16 -35 24 -9 5 -79
-36 -125 -8 -10 -15 -33 -16 -50 -1 -27 -5 -32 -20 -30 -10 2 -38 -11 -62 -28
-52 -37 -74 -36 -93 4 -51 106 -10 252 90 321 72 51 190 66 254 32z m109 -80
c44 -58 59 -111 54 -187 -6 -83 -40 -147 -100 -190 -60 -44 -70 -40 -48 18 10
27 22 77 26 112 5 47 11 64 24 67 21 5 42 47 34 66 -3 8 -18 24 -34 36 -31 22
-38 56 -24 108 5 18 10 21 25 13 10 -6 29 -25 43 -43z"/>
<path d="M170 423 c0 -37 1 -38 38 -38 37 0 37 1 37 38 0 36 0 37 -37 37 -37
0 -38 -1 -38 -37z"/>
</g>
</svg>
